<?xml version="1.0" encoding="utf-8" ?><svg xmlns="http://www.w3.org/2000/svg" xmlns:xlink="http://www.w3.org/1999/xlink" width="1024" height="1024" viewBox="0 0 1024 1024"><path fill="white" d="M0 0L1024 0L1024 1024L0 1024L0 0Z"/><path fill="#0D0D0C" d="M262.757 143.65C268.933 142.745 278.989 143.918 285.33 144.651C314.683 147.81 343.481 154.884 370.958 165.684C433.794 190.265 481.091 235.113 508.57 296.78C509.995 299.979 511.422 303.176 512.824 306.386C524.497 276.546 538.594 252.296 560.666 228.694C601.06 185.711 657.442 158.159 715.293 148.331C741.281 143.916 771.257 136.801 792.277 157.44C810.408 175.244 807.214 193.32 807.656 216.372C816.065 216.221 824.476 216.115 832.887 216.054C851.351 215.93 866.393 218.529 878.8 233.477C888.39 245.03 890.822 255.231 890.896 269.722L890.899 597.991L890.837 693.965L890.783 723.471C890.672 742.136 890.581 756.006 876.456 770.362C860.392 786.688 841.247 784.064 820.25 783.998C795.725 784.008 770.132 783.751 745.69 784.278C684.502 785.598 613.822 804.589 568.01 847.231C561.853 852.886 556.174 859.04 551.031 865.631C546.986 870.912 543.252 876.564 538.8 881.491C527.337 894.175 504.836 895.263 491.427 885.215C485.772 880.978 481.244 873.911 476.975 868.269C473.278 863.362 469.338 858.643 465.171 854.129C437.378 824.307 396.937 805.416 358.058 795.093C311.467 782.723 270.125 783.933 222.715 784L195.967 784.075C189.857 784.091 181.688 784.368 175.799 783.327C166.549 781.616 158.016 777.191 151.289 770.615C140.441 759.904 137.006 748.371 136.867 733.564L136.953 410.563L136.909 307.486L136.885 276.983C136.884 274.601 137.07 271.033 136.888 268.76C134.663 241.878 154.92 218.143 181.899 216.434C193.988 215.669 206.382 216.405 218.539 216.443C218.727 197.556 215.856 179.964 227.777 164.08C236.509 152.445 248.475 145.881 262.757 143.65Z"/><path fill="white" d="M297.949 211.636C298.581 211.599 299.356 211.548 300 211.569C340.469 212.853 384.242 230.444 417.49 252.725C429.036 260.463 440.622 270.909 450.207 280.511C463.859 293.942 475.014 309.692 483.155 327.027C483.916 328.622 487.422 336.344 487.55 337.813C488.438 348.055 488.036 360.725 488.056 371.074L488.082 453.88L488.001 773.078C485.419 768.044 482.868 764.053 479.608 759.469C440.372 704.747 386.197 668.969 321.287 650.965C312.928 648.647 302.973 647.914 295.415 643.522C286.503 638.395 280.121 629.796 277.794 619.781C276.617 614.81 277.133 590.522 277.126 584.132C277.008 553.152 277.093 522.172 277.379 491.193L277.298 326.662L277.136 268.511C277.126 258.021 277.015 247.544 277.306 237.057C277.66 224.246 285.305 214.448 297.949 211.636Z"/><path fill="#0D0D0C" d="M370.346 437.562C374.519 437.388 376.718 437.445 380.654 439.289C402.316 449.441 423.8 459.992 445.302 470.479C450.117 472.827 455.351 475.139 459.74 478.203C461.864 479.686 463.932 483.381 464.781 485.794C466.536 490.801 466.19 496.305 463.822 501.052C461.337 505.922 457.638 507.808 452.76 509.407C444.012 509.887 440.592 506.74 433 502.967L410.711 491.964C397.392 485.284 384.02 479.176 370.693 472.563C365.004 469.568 359.372 466.708 357.738 459.829C355.117 448.801 359.517 440.642 370.346 437.562Z"/><path fill="#0D0D0C" d="M371.917 583.08C378.098 582.652 379.652 583.551 385.149 586.143C401.431 593.871 417.638 601.756 433.767 609.798C440.244 612.959 446.735 616.114 453.199 619.299C458.829 622.073 462.922 624.686 464.886 631.083C468.149 641.703 463.998 651.348 453.028 654.547C450.958 654.738 447.567 655.169 445.743 654.266C434.311 648.599 422.667 643.014 411.238 637.361C397.232 630.433 383.128 623.897 369.145 616.975C363.915 614.339 359.88 610.42 358.509 604.499C355.844 592.991 361.077 585.782 371.917 583.08Z"/><path fill="#0D0D0C" d="M370.822 294.574C374.904 294.296 377.199 294.104 381.022 295.786C393.338 301.205 405.286 307.51 417.423 313.278C426.286 317.448 435.12 321.678 443.924 325.97C451.59 329.704 461.789 333.127 465.066 341.48C466.998 346.289 466.786 351.693 464.485 356.337C462.054 361.341 458.529 363.275 453.595 365.014C449.91 365.285 447.232 365.691 443.726 364.013C419.705 352.568 396.826 340.958 372.828 329.278C361.13 323.585 353.623 317.779 359.735 302.653C361.526 298.221 366.404 295.887 370.822 294.574Z"/><path fill="#0D0D0C" d="M308.374 483.086C312.295 482.843 314.581 482.736 318.174 484.448C336.477 493.168 354.678 502.094 372.833 511.138C380.1 515.129 389.025 518.124 395.82 522.848C401.775 526.987 403.227 538.514 399.857 544.61C397.187 549.44 393.585 551.33 388.701 552.916C386.859 553.06 382.935 553.363 381.337 552.67C372.817 548.976 364.058 544.649 355.709 540.601L323.851 524.894C318.659 522.356 305.089 516.61 301.375 513.112C290.898 503.243 294.341 487.072 308.374 483.086Z"/><path fill="#0D0D0C" d="M307.813 337.051C317.643 336.216 323.505 340.862 332.118 344.959C342.534 349.814 352.899 354.78 363.209 359.856C373.569 364.877 386.001 370.262 395.671 376.488C401.697 380.367 403.676 391.458 400.191 397.621C397.347 402.652 394.648 404.514 389.233 406.432C386.773 406.547 383.39 406.753 381.164 405.803C374.774 403.076 368.166 399.659 361.89 396.632L315.296 374.021C308.065 370.578 298.429 367.177 296.068 358.783C293.279 348.866 297.851 339.89 307.813 337.051Z"/><path fill="#0D0D0C" d="M429.275 397.603C435.927 397.332 451.464 405.687 457.584 409.275C469.29 416.136 466.806 434.694 451.588 437.334C444.135 436.94 437.839 432.584 430.992 429.576C425.198 427.03 418.808 423.504 416.758 417.095C415.613 413.409 416.007 409.416 417.852 406.025C420.47 401.164 424.295 399.128 429.275 397.603Z"/><path fill="#0D0D0C" d="M425.987 540.118C430.034 539.694 434.149 539.926 437.789 541.919C444.807 545.912 458.323 549.632 461.124 557.95C464.171 566.999 459.92 574.987 451.048 578.095C442.922 579.597 430.127 570.728 422.858 567.016C420.583 565.854 417.175 561.837 416.21 559.329C412.653 550.079 417.79 543.812 425.987 540.118Z"/><path fill="#0D0D0C" d="M311.021 268.613C321.278 267.929 329.619 274.256 338.513 278.74C340.762 279.874 344.002 283.369 345.052 285.722C349.394 295.451 343.58 302.058 334.903 305.83C329.106 306.802 324.52 305.174 319.382 302.508C313.046 299.221 304.392 295.865 301.312 288.952C297.189 279.694 302.279 272.235 311.021 268.613Z"/><path fill="#0D0D0C" d="M315.808 413.689C320.067 413.577 324.92 415.995 328.63 417.979C335.682 421.751 345.803 425.346 347.072 434.353C347.534 437.776 346.606 441.241 344.495 443.975C341.622 447.756 338.398 449.042 333.906 449.724C327.878 449.549 314.329 443.524 309.219 439.969C297.277 431.66 300.134 416.022 315.808 413.689Z"/><path fill="#0D0D0C" d="M311.73 559.555C315.379 559.524 318.259 559.844 321.668 561.41C328.608 564.694 338.943 567.947 341.949 575.693C345.576 585.036 340.249 592.487 331.297 595.477C327.648 595.632 324.415 595.061 321.105 593.496C313.693 589.897 304.238 586.645 300.963 578.375C297.289 569.095 302.909 562.405 311.73 559.555Z"/><path fill="white" d="M718.885 211.712C726.175 211.18 732.253 211.801 738.385 216.239C750.636 225.107 748.854 241.503 748.859 254.785L748.844 286.515L748.765 402.494L748.79 548.255L748.862 591.019C748.896 608.564 751.575 625.26 737.854 638.267C728.228 647.391 720.608 647.054 708.538 649.82C702.283 651.304 696.092 653.046 689.981 655.041C634.333 672.723 585.557 707.265 550.402 753.886C545.694 760.073 542.017 766.018 537.992 772.624L537.946 454.52L537.897 373.297C537.893 368.128 537.315 340.59 538.391 337.582C562.906 269.028 650.707 216.683 718.885 211.712Z"/><path fill="#0D0D0C" d="M649.797 437.636C665.52 437.226 673.775 452.934 664.808 465.702C663.107 468.123 661.12 469.625 658.502 470.981C647.537 476.659 636.228 481.741 625.205 487.322C616.908 491.053 583.739 508.87 577.768 509.968C574.348 510.019 571.284 509.537 568.243 507.881C564.055 505.552 561.02 501.592 559.861 496.943C557.657 487.996 561.088 480.12 569.243 475.983C578.927 471.07 588.72 466.409 598.469 461.624L629.854 446.344C634.779 443.968 644.763 438.697 649.797 437.636Z"/><path fill="#0D0D0C" d="M649.517 294.104C653.072 294.146 656.11 294.788 659.188 296.635C662.963 298.944 665.65 302.674 666.645 306.986C668.804 315.994 665.047 322.944 656.992 326.853C649.162 330.654 641.22 334.187 633.413 338.002L599.602 354.44C592.911 357.709 582.85 363.511 576.031 364.873C556.456 365.708 552.248 340.173 569.184 331.749C592.502 320.15 616.073 309.023 639.487 297.606C642.987 295.9 645.67 294.812 649.517 294.104Z"/><path fill="#0D0D0C" d="M648.88 584.091C669.529 582.988 674.001 605.713 658.394 615.977C654.042 618.838 647.795 621.464 642.971 623.808L615.861 636.93L595.003 647.008C589.96 649.468 583.105 653.117 577.897 654.559C574.104 654.971 570.277 654.179 566.96 652.294C559.002 647.819 556.797 635.408 562.047 628.184C566.508 622.044 577.212 617.981 584.004 614.623C595.251 609.077 606.546 603.629 617.889 598.282C624.05 595.337 643.528 585.348 648.88 584.091Z"/><path fill="#0D0D0C" d="M711.287 483.109C715.327 482.815 717.978 482.826 721.739 484.717C725.293 486.521 727.98 489.668 729.205 493.46C732.003 501.935 728.656 510.888 720.866 515.067C715.776 517.798 710.845 520.237 705.647 522.753L679.445 535.366C671.806 539.055 649.784 550.466 642.673 552.547C634.297 553.37 627.333 550.13 624.495 541.763C622.867 536.938 623.355 531.65 625.837 527.204C627.474 524.25 629.368 522.334 632.301 520.682C640.939 515.817 650.599 511.6 659.525 507.234C670.92 501.534 682.403 496.014 693.972 490.675C699.214 488.24 705.94 484.767 711.287 483.109Z"/><path fill="#0D0D0C" d="M710.153 337.105C726.425 335.536 734.385 347.631 728.275 362.033C725.692 368.12 710.711 373.948 704.85 376.812L675.16 391.281C667.292 395.053 651.067 403.614 643.966 406.002C635.973 407.145 628.803 404.717 625.21 397.057C623.161 392.752 623.006 387.786 624.781 383.361C626.001 380.326 628.251 377.316 631.034 375.69C640.122 370.381 651.842 364.733 661.4 360.343C677.368 353.007 694.225 343.852 710.153 337.105Z"/><path fill="#0D0D0C" d="M705.681 414.121C709.761 413.861 711.929 413.813 715.582 415.955C719.077 417.991 721.584 421.372 722.517 425.308C725.376 436.876 717.173 443.236 707.746 447.109C703.466 448.867 699.775 450.944 695.125 451.951C692.6 452.07 690.551 452.136 688.179 451.208C683.867 449.542 680.458 446.134 678.789 441.823C675.129 432.238 681.75 425.154 689.789 421.366C695.034 418.895 700.18 416.008 705.681 414.121Z"/><path fill="#0D0D0C" d="M592.76 539.563C605.636 538.819 614.359 549.767 608.051 561.44C605.441 566.269 585.928 575.722 580.764 576.989C564.593 577.748 557.859 561.838 568.874 551.779C571.882 549.032 588.725 540.942 592.76 539.563Z"/><path fill="#0D0D0C" d="M591.124 398.604C595.256 398.356 599.576 398.673 602.482 401.291C615.89 413.367 605.492 425.893 591.944 430.71C588.116 432.071 584.232 434.64 580.211 435.977C577.837 436.168 576.084 436.199 573.768 435.447C569.6 434.097 566.172 431.086 564.296 427.127C556.573 410.681 579.877 403.753 591.124 398.604Z"/><path fill="#0D0D0C" d="M710.395 268.627C712.916 268.541 714.776 268.716 717.166 269.703C720.888 271.22 723.836 274.183 725.334 277.914C729.058 287.39 723.047 294.143 714.869 297.587C708.924 300.091 703.362 303.437 697.185 305.644C693.484 305.852 690.48 305.519 687.298 303.506C683.932 301.407 681.577 298.016 680.787 294.129C678.039 280.677 692.461 276.322 701.73 271.805C704.435 270.487 707.447 269.22 710.395 268.627Z"/><path fill="#0D0D0C" d="M707.709 559.571C711.155 559.31 713.313 559.015 716.583 560.527C720.231 562.199 723.047 565.276 724.39 569.057C727.829 578.448 721.773 585.388 713.767 589.013C709.092 591.13 704.832 593.543 699.865 595.057C697.475 595.423 694.799 595.314 692.491 594.582C688.609 593.377 685.381 590.652 683.543 587.028C681.773 583.523 681.569 579.432 682.983 575.769C686.077 567.846 699.821 562.846 707.709 559.571Z"/><path fill="white" d="M216.614 278.987L218.079 279.078C219.381 281.22 218.704 316.249 218.686 322.561L218.843 386.348L218.966 588.09L218.805 635.086C218.63 659.727 215.786 676.045 237.097 693.266C252.113 706.022 269.889 703.288 288.092 705.612C358.674 714.625 436.577 750.65 474.117 814.129C470.57 811.312 466.346 807.254 462.98 804.165C454.45 796.371 445.109 789.778 435.342 783.421C385.113 750.731 327.291 733.422 268.076 726.742C259.19 725.739 249.577 725.275 240.641 724.834C234.473 724.549 227.914 725.209 221.808 724.307C208.441 722.332 195.981 708.796 195.666 695.134C195.314 679.871 195.584 664.247 195.581 648.881L195.463 556.734L195.529 392.941L195.672 331.867C195.737 320.564 194.256 302.404 198.588 291.741C201.329 284.997 209.883 281.271 216.614 278.987Z"/><path fill="white" d="M807.516 278.369C833.059 283.251 830.247 302.667 830.276 322.262L830.354 362.987L830.424 494.274L830.399 628.362L830.368 671.367C830.356 679.623 830.457 687.849 830.023 695.996C829.603 707.599 820.448 719.303 809.457 722.988C800.973 725.832 788.782 724.837 779.491 725.327C770.624 725.806 761.77 726.515 752.94 727.452C689.399 734.249 614.447 760.297 565.2 802.111C560.731 806.181 556.334 810.329 552.01 814.553C586.554 755.448 653.588 720.473 719.131 708.242C727.702 706.691 736.345 705.571 745.029 704.888C763.79 703.542 777.186 704.871 792.289 690.467C798.492 684.55 805.448 673.852 806.49 665.346C807.945 653.474 807.441 638.271 807.456 626.146L807.502 554.026L807.531 369.316C807.535 339.147 807.158 308.471 807.516 278.369Z"/></svg>